<svg width="80" height="56.6" viewBox="0 0 48 34" fill="none" xmlns="http://www.w3.org/2000/svg">
<rect width="80" height="56.6" rx="2.28571" fill="white"/>
<path fill-rule="evenodd" clip-rule="evenodd" d="M14.5466 12.3678C14.1974 12.786 13.6388 13.1158 13.0802 13.0687C13.0104 12.5032 13.2839 11.9024 13.6039 11.5313C13.953 11.1013 14.564 10.795 15.0586 10.7715C15.1168 11.3605 14.8899 11.9378 14.5466 12.3678ZM15.0528 13.1805C14.5607 13.1519 14.1116 13.3304 13.7489 13.4745C13.5155 13.5673 13.3179 13.6459 13.1675 13.6459C12.9987 13.6459 12.7929 13.5631 12.5618 13.4702C12.259 13.3484 11.9128 13.2092 11.5498 13.2159C10.7177 13.2277 9.94378 13.7048 9.51899 14.4646C8.64615 15.9843 9.29205 18.2344 10.1358 19.4714C10.5489 20.084 11.0436 20.7555 11.6953 20.7319C11.982 20.721 12.1883 20.6324 12.4017 20.5407C12.6474 20.4351 12.9027 20.3255 13.3013 20.3255C13.6861 20.3255 13.9302 20.4323 14.1646 20.5348C14.3874 20.6323 14.6013 20.7259 14.919 20.7201C15.594 20.7084 16.0188 20.1076 16.4319 19.495C16.8778 18.8375 17.0737 18.1958 17.1034 18.0984L17.1069 18.0872C17.1062 18.0865 17.1007 18.0839 17.091 18.0794L17.091 18.0794C16.9419 18.0103 15.8028 17.4824 15.7918 16.0668C15.7809 14.8786 16.6954 14.2766 16.8394 14.1818C16.8481 14.176 16.854 14.1721 16.8567 14.1701C16.2748 13.2983 15.3671 13.2041 15.0528 13.1805ZM19.7255 20.6555V11.4725H23.1296C24.8869 11.4725 26.1147 12.6976 26.1147 14.4883C26.1147 16.279 24.8636 17.5159 23.083 17.5159H21.1336V20.6555H19.7255ZM21.1336 12.674H22.7571C23.9791 12.674 24.6774 13.3338 24.6774 14.4942C24.6774 15.6545 23.9791 16.3202 22.7513 16.3202H21.1336V12.674ZM30.764 19.554C30.3916 20.2726 29.5711 20.7262 28.6867 20.7262C27.3774 20.7262 26.4638 19.9369 26.4638 18.747C26.4638 17.569 27.3483 16.8916 28.9834 16.7914L30.7408 16.6854V16.1789C30.7408 15.4308 30.2578 15.0243 29.3966 15.0243C28.6867 15.0243 28.1688 15.3954 28.064 15.9609H26.7955C26.8362 14.7711 27.9418 13.9052 29.4373 13.9052C31.0492 13.9052 32.0966 14.7593 32.0966 16.0846V20.6555H30.7931V19.554H30.764ZM29.0649 19.6363C28.3143 19.6363 27.8371 19.2711 27.8371 18.7116C27.8371 18.1343 28.2968 17.7986 29.1755 17.7455L30.7408 17.6454V18.1638C30.7408 19.0237 30.0192 19.6363 29.0649 19.6363ZM36.4201 21.0147C35.8556 22.6228 35.2097 23.1529 33.8364 23.1529C33.7317 23.1529 33.3826 23.1412 33.3011 23.1176V22.0161C33.3884 22.0279 33.6037 22.0397 33.7142 22.0397C34.3369 22.0397 34.686 21.7746 34.9013 21.0854L35.0293 20.679L32.6436 13.9935H34.1158L35.7742 19.4185H35.8033L37.4617 13.9935H38.8931L36.4201 21.0147Z" fill="black"/>
</svg>
