<svg width="" height="" viewBox="0 0 86 67" fill="none" xmlns="http://www.w3.org/2000/svg">
<path d="M85.9476 19.8341V16.5284C85.9476 7.41491 78.5327 0 69.4192 0H16.5284C7.41491 0 0 7.41491 0 16.5284V19.8341H85.9476Z" fill="black"/>
<path d="M0 26.4375V49.5772C0 58.6907 7.41491 66.1056 16.5284 66.1056H69.4192C78.5326 66.1056 85.9476 58.6907 85.9476 49.5772V26.4375H0ZM23.1397 52.8829H16.5284C14.7036 52.8829 13.2227 51.402 13.2227 49.5772C13.2227 47.7525 14.7036 46.2716 16.5284 46.2716H23.1397C24.9645 46.2716 26.4454 47.7525 26.4454 49.5772C26.4454 51.402 24.9645 52.8829 23.1397 52.8829ZM42.9738 52.8829H33.0568C31.232 52.8829 29.7511 51.402 29.7511 49.5772C29.7511 47.7525 31.232 46.2716 33.0568 46.2716H42.9738C44.7985 46.2716 46.2795 47.7525 46.2795 49.5772C46.2795 51.402 44.7985 52.8829 42.9738 52.8829Z" fill="black"/>
</svg>
