<svg width="" height="" viewBox="0 0 27 27" fill="none" xmlns="http://www.w3.org/2000/svg">
<path d="M9.47135e-05 23.1545C9.47135e-05 23.9975 0.356048 24.8058 0.989789 25.4019C1.62357 25.9979 2.48295 26.3327 3.37945 26.3327H22.6906C23.587 26.3327 24.4464 25.9979 25.0802 25.4019C25.714 24.8058 26.0699 23.9976 26.0699 23.1545V18.1602H23.1734V23.1545C23.1734 23.2748 23.1226 23.3904 23.032 23.4756C22.9414 23.5608 22.8185 23.6086 22.6905 23.6086H3.37941C3.11269 23.6086 2.89649 23.4053 2.89649 23.1544V18.1602H0L9.47135e-05 23.1545Z" fill="black"/>
<path d="M11.5868 0V14.4207L7.24197 10.3345L5.19482 12.2594L12.0118 18.6703C12.2832 18.9256 12.6513 19.0688 13.0352 19.0688C13.4191 19.0688 13.7872 18.9256 14.0586 18.6703L20.8756 12.2594L18.8285 10.3341L14.4836 14.4203V0.000486824L11.5868 0Z" fill="black"/>
</svg>
