<svg width="27" height="24" viewBox="0 0 27 24" fill="none" xmlns="http://www.w3.org/2000/svg">
<rect width="17.2522" height="5.0087" transform="matrix(-1 0 0 1 24.3525 1.66943)" fill="white"/>
<rect width="17.2522" height="5.0087" transform="matrix(-1 0 0 1 19.8994 17.252)" fill="white"/>
<rect width="15.0261" height="17.2522" transform="matrix(-1 0 0 1 21.0137 5.00879)" fill="white"/>
<path d="M5.15192 15.6522V3.13043C5.15192 1.40139 6.55331 0 8.28235 0H22.891C24.6201 0 26.0215 1.40139 26.0215 3.13043V8.34783H21.8476V20.8696C21.8476 22.5986 20.4462 24 18.7171 24H4.10844C2.37939 24 0.978004 22.5986 0.978004 20.8696V15.6522H5.15192ZM21.8476 6.26087H23.9345V3.13043C23.9345 2.55548 23.466 2.08696 22.891 2.08696C22.315 2.08696 21.8476 2.55443 21.8476 3.13043V6.26087ZM19.7606 20.8696V3.13043C19.7606 2.76522 19.8232 2.41357 19.939 2.08696H8.28235C7.7074 2.08696 7.23887 2.55548 7.23887 3.13043V15.6522H17.6737V20.8696C17.6737 21.4456 18.1411 21.913 18.7171 21.913C19.2921 21.913 19.7606 21.4445 19.7606 20.8696ZM3.06496 20.8696C3.06496 21.4445 3.53348 21.913 4.10844 21.913H15.7651C15.6493 21.5864 15.5867 21.2348 15.5867 20.8696V17.7391H3.06496V20.8696ZM9.32583 8.34783H17.6737V6.26087H9.32583V8.34783ZM9.32583 12.5217H17.6737V10.4348H9.32583V12.5217Z" fill="black"/>
</svg>
