<svg width="35" height="35" viewBox="0 0 35 35" fill="none" xmlns="http://www.w3.org/2000/svg">
<path d="M17.5 0.000543101C12.8587 0.000543101 8.40753 1.84415 5.12558 5.12604C1.84355 8.40802 0 12.8592 0 17.5003C0 22.1413 1.84363 26.5926 5.12558 29.8745C8.40761 33.1565 12.8589 35 17.5 35C22.1411 35 26.5925 33.1564 29.8744 29.8745C33.1564 26.5925 35 22.1413 35 17.5003C34.9967 12.8599 33.1519 8.41104 29.8708 5.12915C26.5894 1.8481 22.1402 0.00333621 17.4995 0L17.5 0.000543101ZM18.6947 25.4659C18.3816 25.7899 17.9506 25.9726 17.5 25.9726C17.2748 25.9723 17.0524 25.9229 16.8484 25.8278C16.645 25.7447 16.4601 25.6214 16.3053 25.4659C15.9873 25.1495 15.8091 24.7194 15.8104 24.2709C15.8116 23.823 15.9892 23.3938 16.3053 23.0762C16.4635 22.9244 16.6471 22.8016 16.8484 22.7141C17.1578 22.5871 17.4976 22.5537 17.8258 22.6183C18.1541 22.6825 18.4562 22.8416 18.6947 23.0762C18.8505 23.2314 18.9736 23.416 19.0569 23.6193C19.1481 23.8242 19.1936 24.0467 19.1897 24.2709C19.1909 24.7195 19.0127 25.1495 18.6947 25.4659L18.6947 25.4659ZM19.1896 17.5001C19.1896 18.1038 18.8677 18.6615 18.3449 18.9633C17.8221 19.2651 17.1778 19.2652 16.655 18.9633C16.1322 18.6615 15.8103 18.1038 15.8103 17.5001V10.7295C15.806 10.2785 15.9821 9.84484 16.2995 9.52448C16.6168 9.20413 17.049 9.02411 17.5 9.02411C17.951 9.02411 18.3831 9.20414 18.7005 9.52448C19.0178 9.84483 19.1939 10.2785 19.1896 10.7295L19.1896 17.5001Z" fill="#FC3E3A"/>
</svg>
