<svg width="6" height="14" viewBox="0 0 6 14" fill="none" xmlns="http://www.w3.org/2000/svg">
<path d="M2.826 1.152C2.886 0.84 3.042 0.57 3.294 0.342C3.558 0.114 3.84 0 4.14 0C4.452 0 4.692 0.114 4.86 0.342C5.04 0.57 5.1 0.84 5.04 1.152C4.98 1.464 4.818 1.734 4.554 1.962C4.302 2.19 4.02 2.304 3.708 2.304C3.408 2.304 3.168 2.19 2.988 1.962C2.82 1.734 2.766 1.464 2.826 1.152ZM2.268 5.958C2.52 5.214 2.436 4.842 2.016 4.842C1.74 4.842 1.494 4.992 1.278 5.292C1.062 5.592 0.834 6.054 0.594 6.678L0.342 7.344H0L0.468 6.03C0.648 5.526 0.864 5.142 1.116 4.878C1.368 4.614 1.632 4.434 1.908 4.338C2.196 4.23 2.46 4.176 2.7 4.176C3.084 4.176 3.366 4.254 3.546 4.41C3.726 4.566 3.834 4.77 3.87 5.022C3.906 5.274 3.894 5.55 3.834 5.85C3.774 6.138 3.696 6.42 3.6 6.696L1.674 12.15C1.554 12.498 1.512 12.774 1.548 12.978C1.596 13.17 1.734 13.266 1.962 13.266C2.202 13.266 2.43 13.134 2.646 12.87C2.862 12.606 3.102 12.126 3.366 11.43L3.618 10.764H3.96L3.492 12.078C3.324 12.546 3.12 12.918 2.88 13.194C2.64 13.458 2.382 13.644 2.106 13.752C1.83 13.872 1.554 13.932 1.278 13.932C0.762 13.932 0.414 13.812 0.234 13.572C0.054 13.332 -0.012 13.02 0.036 12.636C0.084 12.252 0.186 11.844 0.342 11.412L2.268 5.958Z" fill="black"/>
</svg>
