<svg width="127" height="18" viewBox="0 0 127 18" fill="none" xmlns="http://www.w3.org/2000/svg">
<path d="M20.1652 0L12.4239 10.5479L4.68259 0H0V17.9456H4.75958V7.73273L12.4239 17.6962L20.0882 7.73273V17.9456H24.8478V0H20.1652Z" fill="black"/>
<path d="M94.9639 0L87.6613 10.5479L80.3521 0H75.9243V17.9456H80.4248V7.73273L87.6613 17.6962L94.8912 7.73273V17.9456H99.3917V0H94.9639Z" fill="black"/>
<path d="M46.935 3.91982V0H27.6089V17.9456H46.935V14.0258H32.1284V10.7617H44.257V7.15545H32.1284V3.91982H46.935Z" fill="black"/>
<path d="M64.4058 10.5906H58.3988L61.409 4.80357L64.4058 10.5906ZM63.8185 0H59.0396L49.6953 17.9456H54.6277L56.4966 14.3465H66.4215L68.2903 17.9456H73.1627L63.8185 0Z" fill="black"/>
<path d="M117.724 10.5906H111.38L114.552 4.80357L117.724 10.5906ZM117.075 0H112.021L102.152 17.9456H107.362L109.335 14.3465H119.817L121.791 17.9456H127L117.075 0Z" fill="black"/>
</svg>
