<svg width="80" height="56.6" viewBox="0 0 48 34" fill="none" xmlns="http://www.w3.org/2000/svg">
<rect width="80" height="56.6" rx="2.28571" fill="white"/>
<path fill-rule="evenodd" clip-rule="evenodd" d="M17.5854 25.5951V26.8188V28.0425H17.0497V27.7453C16.8798 27.9657 16.622 28.104 16.2715 28.104C15.5807 28.104 15.0391 27.5666 15.0391 26.8188C15.0391 26.0716 15.5807 25.5335 16.2715 25.5335C16.622 25.5335 16.8798 25.6719 17.0497 25.8922V25.5951H17.5854ZM16.3382 26.0352C15.8745 26.0352 15.5907 26.3886 15.5907 26.8188C15.5907 27.2489 15.8745 27.6023 16.3382 27.6023C16.7813 27.6023 17.0804 27.2642 17.0804 26.8188C17.0804 26.3734 16.7813 26.0352 16.3382 26.0352ZM35.6879 26.8188C35.6879 26.3886 35.9717 26.0352 36.4354 26.0352C36.8791 26.0352 37.1776 26.3734 37.1776 26.8188C37.1776 27.2642 36.8791 27.6023 36.4354 27.6023C35.9717 27.6023 35.6879 27.2489 35.6879 26.8188ZM37.6832 24.6123V26.8188V28.0425H37.1469V27.7453C36.977 27.9657 36.7192 28.104 36.3687 28.104C35.6779 28.104 35.1363 27.5666 35.1363 26.8188C35.1363 26.0716 35.6779 25.5335 36.3687 25.5335C36.7192 25.5335 36.977 25.6719 37.1469 25.8922V24.6123H37.6832ZM24.2349 26.01C24.58 26.01 24.8019 26.2251 24.8585 26.6037H23.58C23.6373 26.2503 23.8532 26.01 24.2349 26.01ZM23.0184 26.8188C23.0184 26.0557 23.5234 25.5335 24.2455 25.5335C24.9358 25.5335 25.4101 26.0557 25.4154 26.8188C25.4154 26.8903 25.4101 26.9571 25.4048 27.0233H23.5753C23.6526 27.464 23.967 27.6228 24.3122 27.6228C24.5594 27.6228 24.8225 27.5303 25.029 27.3667L25.2915 27.7612C24.9924 28.012 24.6526 28.104 24.2815 28.104C23.544 28.104 23.0184 27.5971 23.0184 26.8188ZM30.7139 26.8188C30.7139 26.3886 30.9977 26.0352 31.4614 26.0352C31.9045 26.0352 32.2036 26.3734 32.2036 26.8188C32.2036 27.2642 31.9045 27.6023 31.4614 27.6023C30.9977 27.6023 30.7139 27.2489 30.7139 26.8188ZM32.7086 25.5951V26.8188V28.0425H32.1729V27.7453C32.0024 27.9657 31.7452 28.104 31.3947 28.104C30.7039 28.104 30.1623 27.5666 30.1623 26.8188C30.1623 26.0716 30.7039 25.5335 31.3947 25.5335C31.7452 25.5335 32.0024 25.6719 32.1729 25.8922V25.5951H32.7086ZM27.6885 26.8188C27.6885 27.5613 28.2089 28.104 29.003 28.104C29.3741 28.104 29.6213 28.022 29.8891 27.8121L29.6319 27.382C29.4307 27.5256 29.2195 27.6023 28.987 27.6023C28.5593 27.5971 28.2449 27.29 28.2449 26.8188C28.2449 26.3476 28.5593 26.0405 28.987 26.0352C29.2195 26.0352 29.4307 26.112 29.6319 26.2556L29.8891 25.8254C29.6213 25.6156 29.3741 25.5335 29.003 25.5335C28.2089 25.5335 27.6885 26.0762 27.6885 26.8188ZM33.9456 25.8922C34.0849 25.6771 34.2861 25.5336 34.5952 25.5336C34.7038 25.5336 34.8583 25.5541 34.9769 25.6004L34.8117 26.102C34.6984 26.0557 34.5852 26.0405 34.4766 26.0405C34.1262 26.0405 33.951 26.2656 33.951 26.6705V28.0425H33.4147V25.5951H33.9456V25.8922ZM20.2349 25.7897C19.9771 25.6209 19.6219 25.5335 19.2302 25.5335C18.606 25.5335 18.2042 25.8307 18.2042 26.3171C18.2042 26.7162 18.5033 26.9624 19.0544 27.0391L19.3074 27.0749C19.6013 27.1159 19.7399 27.1927 19.7399 27.331C19.7399 27.5203 19.544 27.6281 19.1782 27.6281C18.8072 27.6281 18.5393 27.5103 18.3588 27.372L18.1063 27.7864C18.4001 28.0014 18.7712 28.104 19.1729 28.104C19.8844 28.104 20.2968 27.7711 20.2968 27.3052C20.2968 26.875 19.9723 26.65 19.4361 26.5732L19.1836 26.5369C18.9517 26.5064 18.7659 26.4607 18.7659 26.2966C18.7659 26.1173 18.9411 26.01 19.2349 26.01C19.5493 26.01 19.8538 26.1278 20.003 26.2198L20.2349 25.7897ZM26.498 25.8922C26.6366 25.6771 26.8378 25.5336 27.147 25.5336C27.2555 25.5336 27.4101 25.5541 27.5287 25.6004L27.3635 26.102C27.2502 26.0557 27.1369 26.0405 27.0284 26.0405C26.6779 26.0405 26.5027 26.2656 26.5027 26.6705V28.0425H25.967V25.5951H26.498V25.8922ZM22.5752 25.5951H21.6991V24.8525H21.1575V25.5951H20.6578V26.0815H21.1575V27.198C21.1575 27.7658 21.3794 28.104 22.013 28.104C22.2454 28.104 22.5133 28.0325 22.6832 27.9147L22.5286 27.4588C22.3687 27.5508 22.1935 27.5971 22.0543 27.5971C21.7864 27.5971 21.6991 27.433 21.6991 27.1874V26.0815H22.5752V25.5951ZM14.5653 26.5064V28.0425H14.0237V26.6805C14.0237 26.2656 13.8485 26.0352 13.4827 26.0352C13.127 26.0352 12.8798 26.2609 12.8798 26.6858V28.0425H12.3382V26.6805C12.3382 26.2656 12.1583 26.0352 11.8025 26.0352C11.4361 26.0352 11.199 26.2609 11.199 26.6858V28.0425H10.658V25.5951H11.1943V25.8969C11.3954 25.6103 11.6527 25.5336 11.9158 25.5336C12.2922 25.5336 12.56 25.6977 12.7299 25.969C12.9571 25.6256 13.2816 25.5283 13.596 25.5336C14.1942 25.5388 14.5653 25.928 14.5653 26.5064Z" fill="#231F20"/>
<path d="M28.1764 21.4363H20.0573V6.94189H28.1764V21.4363Z" fill="#FF5F00"/>
<path d="M20.5724 14.1896C20.5724 11.2493 21.9582 8.63024 24.1163 6.94239C22.5381 5.70815 20.5464 4.97148 18.3818 4.97148C13.2574 4.97148 9.10344 9.0985 9.10344 14.1896C9.10344 19.2807 13.2574 23.4077 18.3818 23.4077C20.5464 23.4077 22.5381 22.671 24.1163 21.4368C21.9582 19.7489 20.5724 17.1299 20.5724 14.1896" fill="#EB001B"/>
<path d="M39.1298 14.1896C39.1298 19.2807 34.9758 23.4077 29.8514 23.4077C27.6868 23.4077 25.6951 22.671 24.1163 21.4368C26.275 19.7489 27.6608 17.1299 27.6608 14.1896C27.6608 11.2493 26.275 8.63024 24.1163 6.94239C25.6951 5.70815 27.6868 4.97148 29.8514 4.97148C34.9758 4.97148 39.1298 9.0985 39.1298 14.1896" fill="#F79E1B"/>
</svg>
