<svg width="28" height="27" viewBox="0 0 28 27" fill="none" xmlns="http://www.w3.org/2000/svg">
<path d="M27.1706 0H11.4972C9.07437 0 7.10848 2.00739 7.10848 4.47725V21.6706H0.832708C0.368972 21.6706 0 22.05 0 22.5227C0 24.9894 1.96909 27 4.38867 27H20.0586C22.4814 27 24.4536 24.9894 24.4536 22.5227L24.4538 4.47702C24.4538 2.94915 25.6653 1.70411 27.1707 1.70411C27.631 1.70411 28 1.32122 28 0.851938C27.9998 0.385916 27.6308 0 27.1704 0H27.1706ZM15.6866 18.0154H11.0401C10.5798 18.0154 10.2108 17.636 10.2108 17.1665C10.2108 16.6905 10.5798 16.3076 11.0401 16.3076H15.6834C16.1438 16.3076 16.5194 16.6905 16.5194 17.1665C16.5194 17.636 16.1438 18.0154 15.6866 18.0154ZM11.0401 13.2985C10.5798 13.2985 10.2108 12.9123 10.2108 12.4463C10.2108 11.9736 10.5798 11.5941 11.0401 11.5941H20.327C20.7873 11.5941 21.1563 11.9735 21.1563 12.4463C21.1563 12.9156 20.7873 13.2985 20.327 13.2985H11.0401ZM20.3299 8.57811H11.0401C10.5798 8.57811 10.2108 8.19522 10.2108 7.72594C10.2108 7.25318 10.5798 6.87049 11.0401 6.87049H20.327C20.7873 6.87049 21.1563 7.25339 21.1563 7.72594C21.1563 8.19544 20.7873 8.57811 20.3302 8.57811H20.3299ZM4.38885 25.2923C3.18075 25.2923 2.15218 24.4901 1.80273 23.3748H15.7554C15.8894 24.0939 16.2158 24.7429 16.6403 25.2923H4.38885Z" fill="white"/>
</svg>
