<svg width="27" height="27" viewBox="0 0 27 27" fill="none" xmlns="http://www.w3.org/2000/svg">
<g clip-path="url(#clip0_715_278)">
<path fill-rule="evenodd" clip-rule="evenodd" d="M13.13 0.369995C20.3815 0.369995 26.26 6.2485 26.26 13.5C26.26 20.7515 20.3815 26.63 13.13 26.63C5.87851 26.63 0 20.7515 0 13.5C0 6.2485 5.87851 0.369995 13.13 0.369995ZM13.13 1.75211C6.64181 1.75211 1.38211 7.01181 1.38211 13.5C1.38211 19.9882 6.64181 25.2479 13.13 25.2479C19.6182 25.2479 24.8779 19.9882 24.8779 13.5C24.8779 7.01181 19.6182 1.75211 13.13 1.75211ZM13.0025 18.4585C11.908 18.4585 11.0176 19.349 11.0176 20.4435C11.0176 21.538 11.908 22.4284 13.0025 22.4284C14.097 22.4284 14.9875 21.538 14.9875 20.4435C14.9875 19.349 14.097 18.4585 13.0025 18.4585ZM15.6393 5.20736H10.3658L11.6501 16.851H14.355L15.6393 5.20736Z" fill="black"/>
</g>
<defs>
<clipPath id="clip0_715_278">
<rect width="26.26" height="26.26" fill="white" transform="translate(0 0.369995)"/>
</clipPath>
</defs>
</svg>
