<svg width="316" height="129" viewBox="0 0 316 129" fill="none" xmlns="http://www.w3.org/2000/svg">
<path d="M290.8 1.5V6.14258C290.8 14.0819 298.923 19.9285 308.1 19.9287H314.5V23.0713H312.05C309.414 23.0714 306.6 24.7897 306.6 27.6426C306.6 30.4957 309.414 32.2138 312.05 32.2139H314.5V35.3574H312.05C309.414 35.3575 306.6 37.0756 306.6 39.9287C306.6 42.7817 309.414 44.4999 312.05 44.5H314.5V47.6426H312.05C309.414 47.6427 306.6 49.361 306.6 52.2139C306.6 55.0669 309.414 56.786 312.05 56.7861H314.5V59.9287H312.05C309.414 59.9288 306.6 61.6469 306.6 64.5C306.6 67.3531 309.414 69.0712 312.05 69.0713H314.5V72.2139H312.05C309.414 72.214 306.6 73.933 306.6 76.7861C306.6 79.639 309.414 81.3573 312.05 81.3574H314.5V84.5H312.05C309.414 84.5001 306.6 86.2183 306.6 89.0713C306.6 91.9244 309.414 93.6425 312.05 93.6426H314.5V96.7861H312.05C309.414 96.7862 306.6 98.5043 306.6 101.357C306.6 104.21 309.414 105.929 312.05 105.929H314.5V109.071H308.1C298.923 109.071 290.8 114.918 290.8 122.857V127.5H25.2002V122.857C25.2002 114.918 17.0772 109.071 7.90039 109.071H1.5V105.929H3.9502C6.58582 105.929 9.40021 104.21 9.40039 101.357C9.40039 98.5043 6.5859 96.7862 3.9502 96.7861H1.5V93.6426H3.9502C6.5859 93.6425 9.40039 91.9244 9.40039 89.0713C9.4003 86.2183 6.58587 84.5001 3.9502 84.5H1.5V81.3574H3.9502C6.58577 81.3573 9.40012 79.639 9.40039 76.7861C9.40039 73.933 6.5859 72.214 3.9502 72.2139H1.5V69.0713H3.9502C6.5859 69.0712 9.40039 67.3531 9.40039 64.5C9.40039 61.6469 6.58591 59.9288 3.9502 59.9287H1.5V56.7861H3.9502C6.58591 56.786 9.40039 55.0669 9.40039 52.2139C9.40011 49.361 6.58578 47.6427 3.9502 47.6426H1.5V44.5H3.9502C6.58586 44.4999 9.4003 42.7817 9.40039 39.9287C9.40039 37.0756 6.5859 35.3575 3.9502 35.3574H1.5V32.2139H3.9502C6.5859 32.2138 9.40039 30.4957 9.40039 27.6426C9.40021 24.7897 6.58582 23.0714 3.9502 23.0713H1.5V19.9287H7.90039C17.0772 19.9285 25.2002 14.0819 25.2002 6.14258V1.5H290.8ZM47.4004 16.9287C38.2236 16.9287 30.0999 22.7746 30.0996 30.7139V98.2861C30.0999 106.225 38.2236 112.071 47.4004 112.071H268.6C277.776 112.071 285.9 106.225 285.9 98.2861V30.7139C285.9 22.7746 277.776 16.9287 268.6 16.9287H47.4004Z" stroke="#394A38" stroke-width="3"/>
</svg>
